# xmcd
#
# Track frame offsets:
#	150
#	11719
#	21252
#	34078
#	50701
#	67581
#	84711
#	97669
#	113496
#	125036
#	138802
#	149875
#	165163
#	181042
#	197531
#	213016
#	229892
#	251121
#	265345
#	279133
#	296453
#	313837
#
# Disc length: 4333
#
# Revision: 2
# Processed by: cddbd v1.5.1PL0 Copyright (c) Steve Scherf et al.
# Submitted via: audiograbber 1.82.02
# Normalized: r1:DSETVAR1
#
DISCID=2f10eb16
DTITLE=Various Artist - MB Country 10
DYEAR=1900
DGENRE=Country
TTITLE0=Roger Brown and Swing City - Western Women
TTITLE1=Marty Stuart - Don't Be Cruel (To A Heart That's True)
TTITLE2=Mark Chesnutt - Blame It On Texas
TTITLE3=Lonestar - Come Cryin' To Me
TTITLE4=Dan Seals - Bop
TTITLE5=Mavericks - Here Comes The Rain
TTITLE6=Oak Ridge Boys - Bobbie Sue
TTITLE7=Tracy Lawrence - How A Cowgirl Says Goodbye
TTITLE8=Mark Chesnutt - My Heart's Too Broke (To Pay Attention)
TTITLE9=Ricochet - Daddy's Money
TTITLE10=Floyd Cramer - Last Date
TTITLE11=Kenny Chesney - She's Got It All
TTITLE12=Wylie and The Wild West Show - Talkin' About My Baby
TTITLE13=Steve Wariner - Baby I'm Yours
TTITLE14=Toby Keith - Wish I Didn't Know Now
TTITLE15=Tim McGraw and Faith Hill - It's Your Love
TTITLE16=Brooks and Dunn - Rock My World Little Country Girl [Club Mix]
TTITLE17=Conway Twitty and Loretta Lynn - I Still Believe In Waltzes
TTITLE18=Lori Morgan - 1-800 Used To Be
TTITLE19=George Strait - Carrying Your Love With Me
TTITLE20=Wynona Judd - Tell Me Why
TTITLE21=John Michael Montgomery - Sold (The Grunge County Auction)
EXTD=
EXTT0=
EXTT1=
EXTT2=
EXTT3=
EXTT4=
EXTT5=
EXTT6=
EXTT7=
EXTT8=
EXTT9=
EXTT10=
EXTT11=
EXTT12=
EXTT13=
EXTT14=
EXTT15=
EXTT16=
EXTT17=
EXTT18=
EXTT19=
EXTT20=
EXTT21=
PLAYORDER=
